<svg width="24" height="24" viewBox="0 0 24 24" fill="none" xmlns="http://www.w3.org/2000/svg">
<path d="M17.9331 12.5734C15.4104 12.5734 13.3657 14.6275 13.3657 17.1614C13.3657 19.6955 15.4104 21.75 17.9331 21.75C20.4553 21.75 22.5 19.6955 22.5 17.1614C22.5 14.6275 20.4553 12.5734 17.9331 12.5734ZM6.06714 12.5736C3.54488 12.5739 1.5 14.6275 1.5 17.1616C1.5 19.6955 3.54488 21.7498 6.06714 21.7498C8.5896 21.7498 10.6345 19.6955 10.6345 17.1616C10.6345 14.6275 8.5896 12.5736 6.06692 12.5736H6.06714ZM16.5672 6.83818C16.5672 9.37206 14.5225 11.4268 12.0002 11.4268C9.47755 11.4268 7.43287 9.37206 7.43287 6.83818C7.43287 4.3043 9.47755 2.25 12.0002 2.25C14.5225 2.25 16.5669 4.3043 16.5669 6.83818H16.5672Z" fill="url(#paint0_radial_9830_625)"/>
<defs>
<radialGradient id="paint0_radial_9830_625" cx="0" cy="0" r="1" gradientUnits="userSpaceOnUse" gradientTransform="translate(12.0028 12.9193) scale(13.923 12.9285)">
<stop stop-color="#FFB900"/>
<stop offset="0.6" stop-color="#F95D8F"/>
<stop offset="0.999" stop-color="#F95353"/>
</radialGradient>
</defs>
</svg>
