<svg width="24" height="24" viewBox="0 0 24 24" fill="none" xmlns="http://www.w3.org/2000/svg">
<g id="Logo">
<path id="Vector" d="M18.25 6C17.587 6 16.955 6.128 16.371 6.3525C15.6605 5.24 14.418 4.5 13 4.5C11.9465 4.5 10.991 4.9105 10.2765 5.576C9.4075 4.6105 8.1515 4 6.75 4C4.1265 4 2 6.1265 2 8.75C2 9.146 2.054 9.529 2.145 9.8965C1.1455 10.6745 0.5 11.8855 0.5 13.25C0.5 15.597 2.403 17.5 4.75 17.5C4.9565 17.5 5.158 17.4805 5.357 17.452C6.0135 18.9515 7.5085 20 9.25 20C10.831 20 12.208 19.1345 12.94 17.8535C13.278 17.9465 13.6325 18 14 18C15.31 18 16.469 17.3675 17.199 16.3945C17.5385 16.4635 17.89 16.5 18.25 16.5C21.1495 16.5 23.5 14.1495 23.5 11.25C23.5 8.3505 21.1495 6 18.25 6Z" fill="#039BE5"/>
<path id="Vector_2" d="M7.91135 12.5C7.93385 12.5 7.94935 12.4815 7.94935 12.4585C7.94935 12.4815 7.93335 12.5 7.91135 12.5ZM10.7513 11.967C10.7633 11.967 10.7748 11.971 10.7788 11.9735C10.7748 11.971 10.7638 11.967 10.7523 11.967C10.7518 11.9665 10.7513 11.967 10.7513 11.967ZM3.56885 11.965C3.58035 11.965 3.59135 11.969 3.59785 11.973C3.59135 11.9695 3.58085 11.9645 3.56985 11.9645C3.56935 11.9645 3.56885 11.965 3.56885 11.965ZM12.0628 10.9545C12.0548 10.974 12.0398 10.977 12.0268 10.976C12.0288 10.9765 12.0288 10.9775 12.0313 10.9775C12.0428 10.977 12.0558 10.972 12.0628 10.9545ZM7.91135 9.5C7.93385 9.5 7.94935 9.5185 7.94935 9.541C7.94935 9.5185 7.93335 9.5 7.91135 9.5ZM10.6793 11.0925C10.6793 11.2965 10.7848 11.4235 10.9323 11.51C10.7843 11.4235 10.6793 11.297 10.6793 11.0925ZM19.0628 12.3645C19.0753 12.395 19.0468 12.408 19.0468 12.408C19.0468 12.408 19.0753 12.395 19.0628 12.3645ZM4.27885 10.5C4.40535 10.5 4.53035 10.517 4.64535 10.5465C4.53035 10.517 4.40535 10.5 4.27885 10.5ZM4.88185 10.9545C4.87385 10.974 4.85885 10.977 4.84585 10.976C4.84785 10.9765 4.84785 10.9775 4.85035 10.9775C4.86235 10.977 4.87485 10.972 4.88185 10.9545ZM17.5973 12.082C17.6298 12.135 17.6683 12.1835 17.7118 12.2285C17.7553 12.2735 17.8043 12.313 17.8588 12.347C17.8043 12.313 17.7553 12.2735 17.7118 12.2285C17.6683 12.184 17.6303 12.135 17.5973 12.082ZM18.9148 10.8985C18.9088 10.8985 18.9018 10.8975 18.9018 10.8975C18.9018 10.8975 18.9068 10.8995 18.9138 10.8995C18.9138 10.8995 18.9143 10.8985 18.9148 10.8985ZM18.9158 12.0945C18.9158 12.0945 18.9243 12.093 18.9328 12.0925C18.9323 12.0925 18.9323 12.092 18.9318 12.092C18.9228 12.092 18.9158 12.0945 18.9158 12.0945Z" fill="white"/>
<path id="Vector_3" d="M3.44252 12.231C3.42802 12.266 3.44752 12.273 3.45252 12.279C3.49602 12.308 3.53952 12.329 3.58352 12.352C3.81802 12.4665 4.04002 12.5 4.27152 12.5C4.74352 12.5 5.03652 12.269 5.03652 11.8965V11.8895C5.03652 11.545 4.70552 11.42 4.39552 11.3295L4.35502 11.3175C4.12102 11.2475 3.91952 11.187 3.91952 11.045V11.038C3.91952 10.9165 4.03752 10.827 4.22052 10.827C4.42352 10.827 4.66452 10.8895 4.82002 10.9685C4.82002 10.9685 4.86602 10.9955 4.88252 10.955C4.89152 10.933 4.97002 10.738 4.97852 10.717C4.98752 10.6945 4.97152 10.677 4.95552 10.668C4.77752 10.568 4.53252 10.5 4.27902 10.5L4.23202 10.5005C3.80002 10.5005 3.49852 10.741 3.49852 11.0855V11.0925C3.49852 11.4555 3.83102 11.5735 4.14302 11.6555L4.19302 11.67C4.42002 11.734 4.61602 11.7895 4.61602 11.9365V11.944C4.61602 12.0785 4.48852 12.179 4.28352 12.179C4.20352 12.179 3.95002 12.178 3.67552 12.018C3.64252 12 3.62352 11.9875 3.59802 11.973C3.58452 11.965 3.55052 11.952 3.53602 11.9925L3.44252 12.231ZM10.6235 12.231C10.609 12.266 10.6285 12.273 10.6335 12.279C10.677 12.308 10.7205 12.329 10.7645 12.352C10.999 12.4665 11.221 12.5 11.4525 12.5C11.9245 12.5 12.2175 12.269 12.2175 11.8965V11.8895C12.2175 11.545 11.8865 11.42 11.5765 11.3295L11.536 11.3175C11.302 11.2475 11.1005 11.187 11.1005 11.045V11.038C11.1005 10.9165 11.2185 10.827 11.4015 10.827C11.6045 10.827 11.8455 10.8895 12.001 10.9685C12.001 10.9685 12.047 10.9955 12.0635 10.955C12.0725 10.933 12.151 10.738 12.1595 10.717C12.1685 10.6945 12.1525 10.677 12.1365 10.668C11.9585 10.568 11.7135 10.5 11.46 10.5L11.413 10.5005C10.981 10.5005 10.6795 10.741 10.6795 11.0855V11.0925C10.6795 11.4555 11.0125 11.5735 11.324 11.6555L11.374 11.67C11.601 11.734 11.797 11.7895 11.797 11.9365V11.944C11.797 12.0785 11.6695 12.179 11.4645 12.179C11.3845 12.179 11.131 12.178 10.8565 12.018C10.8235 12 10.804 11.988 10.779 11.973C10.7705 11.968 10.7305 11.9535 10.717 11.9925L10.6235 12.231ZM15.7325 11.1095C15.694 10.988 15.6335 10.881 15.5535 10.792C15.4735 10.7025 15.3715 10.631 15.251 10.579C15.1305 10.5265 14.9885 10.5 14.829 10.5C14.669 10.5 14.527 10.5265 14.4065 10.5785C14.286 10.6305 14.1845 10.7025 14.1045 10.792C14.024 10.881 13.964 10.988 13.9255 11.109C13.887 11.2295 13.8675 11.3615 13.8675 11.5015C13.8675 11.6415 13.887 11.7735 13.9255 11.894C13.964 12.015 14.024 12.122 14.1045 12.2115C14.1845 12.301 14.2865 12.3725 14.407 12.423C14.5275 12.4735 14.669 12.5 14.829 12.5C14.9885 12.5 15.13 12.4745 15.251 12.4235C15.3715 12.3725 15.473 12.301 15.5535 12.212C15.6335 12.123 15.694 12.016 15.7325 11.8945C15.771 11.774 15.7905 11.642 15.7905 11.502C15.7905 11.362 15.771 11.23 15.7325 11.1095ZM15.3385 11.502C15.3385 11.7135 15.296 11.881 15.212 11.9985C15.129 12.115 15.0035 12.172 14.8285 12.172C14.6535 12.172 14.5285 12.115 14.447 11.9985C14.364 11.8805 14.3225 11.7135 14.3225 11.502C14.3225 11.2905 14.3645 11.124 14.447 11.007C14.529 10.8915 14.654 10.8355 14.829 10.8355C15.004 10.8355 15.129 10.8915 15.2125 11.007C15.296 11.1235 15.3385 11.2905 15.3385 11.502ZM18.9665 12.1165C18.9535 12.081 18.916 12.0945 18.916 12.0945C18.859 12.115 18.798 12.1335 18.733 12.143C18.6675 12.1525 18.595 12.1575 18.5175 12.1575C18.327 12.1575 18.1755 12.105 18.067 12.001C17.9585 11.897 17.8975 11.729 17.898 11.5015C17.8985 11.295 17.9525 11.1395 18.049 11.0205C18.145 10.9025 18.2915 10.842 18.486 10.842C18.6485 10.842 18.7725 10.8595 18.902 10.897C18.902 10.897 18.933 10.9095 18.9475 10.872C18.9825 10.783 19.0075 10.72 19.0445 10.6225C19.055 10.5945 19.0295 10.583 19.02 10.5795C18.969 10.561 18.8485 10.5305 18.7575 10.5175C18.6725 10.5065 18.5725 10.5 18.462 10.5C18.2965 10.5 18.1495 10.5265 18.023 10.5785C17.897 10.63 17.7905 10.702 17.7055 10.7915C17.621 10.881 17.557 10.9875 17.514 11.1085C17.471 11.229 17.45 11.3615 17.45 11.502C17.45 11.805 17.538 12.0495 17.712 12.2285C17.8865 12.409 18.148 12.5 18.4895 12.5C18.6915 12.5 18.898 12.462 19.0475 12.408C19.0475 12.408 19.076 12.395 19.0635 12.3645L18.9665 12.1165ZM20.9815 11.0405C20.948 10.923 20.865 10.805 20.811 10.751C20.725 10.665 20.641 10.605 20.558 10.572C20.449 10.5285 20.319 10.5 20.176 10.5C20.0095 10.5 19.8585 10.526 19.736 10.5795C19.6135 10.633 19.51 10.706 19.429 10.797C19.348 10.8875 19.2875 10.9955 19.2485 11.118C19.2095 11.2395 19.19 11.3725 19.19 11.5125C19.19 11.655 19.2105 11.788 19.2505 11.9075C19.291 12.028 19.356 12.134 19.4435 12.222C19.5315 12.3105 19.644 12.3795 19.779 12.428C19.913 12.476 20.076 12.501 20.263 12.5005C20.648 12.4995 20.851 12.42 20.9345 12.377C20.9495 12.369 20.963 12.356 20.946 12.3175L20.8585 12.091C20.8455 12.0575 20.8085 12.0695 20.8085 12.0695C20.713 12.1025 20.5775 12.1615 20.261 12.161C20.054 12.1605 19.901 12.1045 19.805 12.0155C19.7065 11.925 19.658 11.792 19.65 11.6045L20.983 11.6055C20.983 11.6055 21.018 11.605 21.022 11.573C21.0225 11.5595 21.067 11.3185 20.9815 11.0405ZM19.6555 11.2985C19.6745 11.181 19.709 11.083 19.7635 11.007C19.845 10.8915 19.9695 10.8275 20.1445 10.8275C20.3195 10.8275 20.435 10.8915 20.518 11.007C20.573 11.0835 20.597 11.185 20.6065 11.299L19.6555 11.2985ZM10.2265 11.0405C10.193 10.923 10.11 10.805 10.056 10.751C9.97002 10.665 9.88652 10.605 9.80302 10.572C9.69402 10.5285 9.56402 10.5 9.42152 10.5C9.25502 10.5 9.10402 10.526 8.98102 10.5795C8.85852 10.633 8.75502 10.706 8.67402 10.797C8.59302 10.8875 8.53252 10.9955 8.49352 11.118C8.45452 11.2395 8.43502 11.3725 8.43502 11.5125C8.43502 11.655 8.45552 11.788 8.49552 11.9075C8.53602 12.028 8.60102 12.134 8.68852 12.222C8.77652 12.3105 8.88902 12.3795 9.02402 12.428C9.15802 12.476 9.32102 12.501 9.50802 12.5005C9.89302 12.4995 10.096 12.42 10.1795 12.377C10.1945 12.369 10.208 12.356 10.191 12.3175L10.1035 12.091C10.0905 12.0575 10.0535 12.0695 10.0535 12.0695C9.95802 12.1025 9.82252 12.1615 9.50602 12.161C9.29952 12.1605 9.14602 12.1045 9.05002 12.0155C8.95152 11.925 8.90302 11.792 8.89502 11.6045L10.228 11.6055C10.228 11.6055 10.263 11.605 10.267 11.573C10.268 11.5595 10.312 11.3185 10.2265 11.0405ZM8.90102 11.2985C8.92002 11.181 8.95452 11.083 9.00852 11.007C9.09052 10.8915 9.21452 10.8275 9.39002 10.8275C9.56502 10.8275 9.68052 10.8915 9.76402 11.007C9.81902 11.0835 9.84302 11.185 9.85202 11.299L8.90102 11.2985ZM6.46502 11.241C6.41102 11.2375 6.34102 11.2355 6.25702 11.2355C6.14252 11.2355 6.03202 11.2485 5.92852 11.2745C5.82452 11.3005 5.73102 11.3405 5.65052 11.394C5.56952 11.448 5.50452 11.5165 5.45702 11.598C5.40952 11.6795 5.38552 11.7755 5.38552 11.8825C5.38552 11.992 5.40602 12.087 5.44652 12.1645C5.48702 12.2425 5.54552 12.3075 5.62002 12.358C5.69402 12.408 5.78552 12.445 5.89152 12.467C5.99702 12.4885 6.11552 12.5 6.24552 12.5C6.38252 12.5 6.51852 12.4895 6.65052 12.4685C6.78152 12.448 6.94152 12.418 6.98602 12.408C7.03052 12.3985 7.07952 12.386 7.07952 12.386C7.11252 12.378 7.11002 12.3455 7.11002 12.3455L7.10952 11.216C7.10952 10.968 7.03802 10.7845 6.89802 10.6705C6.75752 10.5575 6.55102 10.5 6.28502 10.5C6.18502 10.5 6.02452 10.5125 5.92752 10.5305C5.92752 10.5305 5.63652 10.583 5.51702 10.67C5.51702 10.67 5.49052 10.685 5.50502 10.719L5.59952 10.954C5.61152 10.9845 5.64352 10.974 5.64352 10.974C5.64352 10.974 5.65352 10.9705 5.66552 10.9635C5.92152 10.8345 6.24602 10.838 6.24602 10.838C6.39002 10.838 6.50102 10.865 6.57552 10.918C6.64802 10.97 6.68502 11.0475 6.68502 11.2125V11.265C6.57052 11.2495 6.46502 11.241 6.46502 11.241ZM5.93452 12.109C5.88202 12.0705 5.87502 12.061 5.85802 12.0355C5.83152 11.9975 5.81802 11.9435 5.81802 11.875C5.81802 11.7665 5.85702 11.6885 5.93702 11.636C5.93652 11.636 6.05202 11.5435 6.32352 11.5465C6.51452 11.5485 6.68552 11.575 6.68552 11.575V12.1365C6.68552 12.1365 6.51602 12.17 6.32552 12.1805C6.05452 12.196 5.93352 12.1085 5.93452 12.109ZM17.38 10.5845C17.39 10.5555 17.369 10.542 17.36 10.5385C17.3375 10.5305 17.224 10.5075 17.1365 10.502C16.969 10.4925 16.876 10.519 16.7925 10.555C16.7095 10.5905 16.618 10.6485 16.5675 10.714L16.567 10.5585C16.567 10.537 16.551 10.52 16.529 10.52H16.187C16.1645 10.52 16.149 10.537 16.149 10.5585V12.4615C16.149 12.483 16.167 12.5 16.1895 12.5H16.5395C16.562 12.5 16.5795 12.483 16.5795 12.4615V11.511C16.5795 11.383 16.5945 11.256 16.624 11.176C16.6525 11.097 16.692 11.0335 16.7405 10.9885C16.789 10.943 16.8445 10.9115 16.9055 10.8935C16.9675 10.8755 17.036 10.869 17.084 10.869C17.154 10.869 17.2305 10.8865 17.2305 10.8865C17.2565 10.889 17.2705 10.874 17.2795 10.852C17.303 10.794 17.368 10.619 17.38 10.5845Z" fill="white"/>
<path id="Vector_4" d="M14.1015 9.55299C14.059 9.53999 14.0205 9.53099 13.9695 9.52199C13.918 9.51249 13.8575 9.50799 13.7885 9.50799C13.5475 9.50799 13.3575 9.57649 13.224 9.71099C13.0915 9.84449 13.001 10.048 12.956 10.3155L12.931 10.4985H12.6285C12.6285 10.4985 12.5915 10.497 12.584 10.5375L12.5345 10.8145C12.531 10.841 12.5425 10.8575 12.578 10.8575H12.873L12.574 12.526C12.5505 12.66 12.524 12.7705 12.494 12.8545C12.465 12.9375 12.436 12.999 12.401 13.044C12.367 13.0875 12.3345 13.1195 12.279 13.1385C12.233 13.1535 12.18 13.161 12.122 13.161C12.09 13.161 12.047 13.1555 12.015 13.149C11.983 13.143 11.9665 13.136 11.943 13.126C11.943 13.126 11.9085 13.113 11.8945 13.1475C11.8835 13.176 11.8055 13.392 11.796 13.4185C11.7865 13.445 11.7995 13.4655 11.8165 13.4715C11.8555 13.4855 11.885 13.4945 11.938 13.507C12.0125 13.5245 12.075 13.5255 12.1335 13.5255C12.256 13.5255 12.368 13.5085 12.4605 13.475C12.554 13.441 12.635 13.3825 12.707 13.3035C12.7845 13.2175 12.8335 13.1275 12.88 13.005C12.9265 12.8835 12.9655 12.733 12.9975 12.557L13.2975 10.8575H13.7365C13.7365 10.8575 13.7735 10.859 13.781 10.8185L13.8305 10.5415C13.834 10.515 13.8225 10.4985 13.787 10.4985H13.3605C13.3625 10.489 13.3905 10.246 13.4395 10.105C13.4605 10.0445 13.4995 9.99599 13.533 9.96249C13.5655 9.92949 13.6035 9.90649 13.6445 9.89299C13.687 9.87949 13.735 9.87249 13.7875 9.87249C13.8275 9.87249 13.867 9.87699 13.897 9.88349C13.938 9.89249 13.9545 9.89699 13.9655 9.89999C14.009 9.91349 14.0145 9.90049 14.0235 9.87949L14.125 9.59949C14.1365 9.56949 14.111 9.55699 14.1015 9.55299ZM7.94952 12.4585C7.94952 12.4815 7.93352 12.5 7.91152 12.5H7.55802C7.53552 12.5 7.52002 12.4815 7.52002 12.4585V9.54149C7.52002 9.51849 7.53602 9.50049 7.55802 9.50049H7.91152C7.93402 9.50049 7.94952 9.51899 7.94952 9.54149V12.4585Z" fill="white"/>
</g>
</svg>
